<svg width="276" height="111" viewBox="0 0 276 111" fill="none" xmlns="http://www.w3.org/2000/svg">
<path d="M106.355 77.9829L114.16 93.6337C100.405 93.2968 92.8558 90.3183 65.2396 77.271C50.1546 93.5229 42.8573 100.47 33.2252 106.546C32.164 101.335 35.6259 83.2604 36.9347 74.592C22.5142 62.4507 15.354 56.3186 4.76616 48.9101C19.438 43.7906 28.122 42.6315 44.2416 42.9048C44.8691 27.1805 46.1609 18.7599 51.1162 4.85533C58.8263 12.2553 62.5424 16.6133 68.6185 25.3976C77.944 25.9875 86.4002 24.998 108.418 20.393L100.652 38.6361" stroke="#283618" stroke-width="7.98341" stroke-linecap="round" stroke-linejoin="round"/>
<path d="M61.5127 44.9155H64.724V69H61.5127V44.9155ZM50.5124 43.3782H75.7243V46.2137H50.5124V43.3782ZM90.6893 69L90.0061 61.7234L90.8601 59.3662L90.0061 57.0431L90.6893 49.7666H93.9006L93.0124 59.3662L93.9006 69H90.6893ZM91.9192 59.3662C91.4181 61.3704 90.6438 63.1354 89.5961 64.6614C88.5713 66.1645 87.3186 67.3374 85.8383 68.1801C84.3807 69.0228 82.7636 69.4441 80.9872 69.4441C79.0969 69.4441 77.4229 69.0228 75.9653 68.1801C74.5077 67.3147 73.3576 66.1304 72.5149 64.6272C71.695 63.1013 71.2851 61.3476 71.2851 59.3662C71.2851 57.362 71.695 55.6083 72.5149 54.1052C73.3576 52.602 74.5077 51.4291 75.9653 50.5864C77.4229 49.7438 79.0969 49.3224 80.9872 49.3224C82.7636 49.3224 84.3807 49.7438 85.8383 50.5864C87.3186 51.4291 88.5826 52.602 89.6303 54.1052C90.6779 55.6083 91.4409 57.362 91.9192 59.3662ZM74.4963 59.3662C74.4963 60.8238 74.7924 62.1106 75.3846 63.2265C75.9995 64.3425 76.8308 65.2194 77.8784 65.8571C78.9488 66.472 80.1559 66.7794 81.4996 66.7794C82.8661 66.7794 84.1187 66.472 85.2575 65.8571C86.419 65.2194 87.4439 64.3425 88.3321 63.2265C89.2431 62.1106 89.9833 60.8238 90.5527 59.3662C89.9833 57.9086 89.2431 56.6218 88.3321 55.5058C87.4439 54.3899 86.419 53.5244 85.2575 52.9095C84.1187 52.2718 82.8661 51.9529 81.4996 51.9529C80.1559 51.9529 78.9488 52.2718 77.8784 52.9095C76.8308 53.5244 75.9995 54.3899 75.3846 55.5058C74.7924 56.6218 74.4963 57.9086 74.4963 59.3662ZM96.1759 52.2946V50.7914L100.412 50.0057L101.676 44.7788H103.555V49.7666H112.915V52.2946H103.555V62.065C103.555 63.7959 103.931 65.0144 104.682 65.7204C105.457 66.4037 106.641 66.7453 108.235 66.7453C109.283 66.7453 110.194 66.62 110.968 66.3695C111.765 66.119 112.54 65.7546 113.291 65.2763V68.0435C112.745 68.3851 111.936 68.7039 110.866 69C109.818 69.2961 108.725 69.4441 107.586 69.4441C105.855 69.4441 104.455 69.148 103.384 68.5559C102.336 67.941 101.574 67.1211 101.095 66.0962C100.64 65.0485 100.412 63.8642 100.412 62.5433V52.2946H96.1759ZM134.326 69L133.643 61.7234L134.497 59.3662L133.643 57.0431L134.326 49.7666H137.538L136.65 59.3662L137.538 69H134.326ZM135.556 59.3662C135.055 61.3704 134.281 63.1354 133.233 64.6614C132.208 66.1645 130.956 67.3374 129.475 68.1801C128.018 69.0228 126.401 69.4441 124.624 69.4441C122.734 69.4441 121.06 69.0228 119.602 68.1801C118.145 67.3147 116.995 66.1304 116.152 64.6272C115.332 63.1013 114.922 61.3476 114.922 59.3662C114.922 57.362 115.332 55.6083 116.152 54.1052C116.995 52.602 118.145 51.4291 119.602 50.5864C121.06 49.7438 122.734 49.3224 124.624 49.3224C126.401 49.3224 128.018 49.7438 129.475 50.5864C130.956 51.4291 132.22 52.602 133.267 54.1052C134.315 55.6083 135.078 57.362 135.556 59.3662ZM118.133 59.3662C118.133 60.8238 118.43 62.1106 119.022 63.2265C119.637 64.3425 120.468 65.2194 121.516 65.8571C122.586 66.472 123.793 66.7794 125.137 66.7794C126.503 66.7794 127.756 66.472 128.895 65.8571C130.056 65.2194 131.081 64.3425 131.969 63.2265C132.88 62.1106 133.62 60.8238 134.19 59.3662C133.62 57.9086 132.88 56.6218 131.969 55.5058C131.081 54.3899 130.056 53.5244 128.895 52.9095C127.756 52.2718 126.503 51.9529 125.137 51.9529C123.793 51.9529 122.586 52.2718 121.516 52.9095C120.468 53.5244 119.637 54.3899 119.022 55.5058C118.43 56.6218 118.133 57.9086 118.133 59.3662ZM141.35 49.7666H144.493L145.586 56.3257V69H142.444V55.745L141.35 49.7666ZM155.801 49.6982V52.5337C155.368 52.3971 154.856 52.2946 154.264 52.2262C153.694 52.1579 153.148 52.1238 152.624 52.1238C151.257 52.1238 150.039 52.4312 148.969 53.0461C147.898 53.6611 147.067 54.5607 146.475 55.745C145.883 56.9065 145.586 58.2844 145.586 59.8786L144.698 58.6488C144.744 57.3051 144.96 56.0638 145.347 54.9251C145.735 53.7863 146.281 52.807 146.987 51.9871C147.716 51.1444 148.581 50.4953 149.583 50.0399C150.608 49.5616 151.758 49.3224 153.034 49.3224C153.512 49.3224 154.002 49.3566 154.503 49.4249C155.027 49.4933 155.459 49.5844 155.801 49.6982ZM157.358 60.6985H160.603C160.762 61.9056 161.241 62.9646 162.038 63.8756C162.835 64.7866 163.883 65.4927 165.181 65.9937C166.502 66.472 168.016 66.7111 169.724 66.7111C172.298 66.7111 174.336 66.2784 175.839 65.4129C177.365 64.5247 178.128 63.329 178.128 61.8259C178.128 60.6644 177.65 59.7761 176.694 59.1612C175.76 58.5463 174.12 58.1022 171.774 57.8289L166.821 57.214C163.7 56.8496 161.457 56.1094 160.091 54.9934C158.724 53.8547 158.041 52.3287 158.041 50.4156C158.041 48.8897 158.496 47.5688 159.407 46.4528C160.318 45.314 161.594 44.4486 163.234 43.8564C164.896 43.2415 166.832 42.9341 169.041 42.9341C171.25 42.9341 173.209 43.2757 174.917 43.9589C176.648 44.6194 178.014 45.5532 179.017 46.7603C180.041 47.9446 180.599 49.3452 180.691 50.9622H177.445C177.308 49.869 176.876 48.9353 176.147 48.1609C175.418 47.3638 174.439 46.7489 173.209 46.3161C172.002 45.8606 170.59 45.6329 168.973 45.6329C166.627 45.6329 164.748 46.0542 163.336 46.8969C161.947 47.7168 161.252 48.8669 161.252 50.3473C161.252 51.4861 161.708 52.3629 162.619 52.9778C163.552 53.57 165.124 54.0027 167.333 54.276L172.184 54.9251C174.439 55.1984 176.227 55.5969 177.548 56.1208C178.891 56.6446 179.859 57.3506 180.451 58.2388C181.044 59.1043 181.34 60.2089 181.34 61.5526C181.34 63.1696 180.85 64.5703 179.871 65.7546C178.914 66.9389 177.559 67.8499 175.805 68.4876C174.052 69.1253 172.013 69.4441 169.69 69.4441C167.344 69.4441 165.26 69.0797 163.438 68.3509C161.616 67.5993 160.17 66.5745 159.1 65.2763C158.029 63.9553 157.449 62.4294 157.358 60.6985ZM182.95 52.2946V50.7914L187.186 50.0057L188.45 44.7788H190.329V49.7666H199.689V52.2946H190.329V62.065C190.329 63.7959 190.705 65.0144 191.456 65.7204C192.231 66.4037 193.415 66.7453 195.009 66.7453C196.057 66.7453 196.968 66.62 197.742 66.3695C198.539 66.119 199.314 65.7546 200.065 65.2763V68.0435C199.519 68.3851 198.71 68.7039 197.64 69C196.592 69.2961 195.499 69.4441 194.36 69.4441C192.629 69.4441 191.228 69.148 190.158 68.5559C189.11 67.941 188.347 67.1211 187.869 66.0962C187.414 65.0485 187.186 63.8642 187.186 62.5433V52.2946H182.95ZM221.1 69L220.417 61.7234L221.271 59.3662L220.417 57.0431L221.1 49.7666H224.312L223.423 59.3662L224.312 69H221.1ZM222.33 59.3662C221.829 61.3704 221.055 63.1354 220.007 64.6614C218.982 66.1645 217.73 67.3374 216.249 68.1801C214.792 69.0228 213.175 69.4441 211.398 69.4441C209.508 69.4441 207.834 69.0228 206.376 68.1801C204.919 67.3147 203.769 66.1304 202.926 64.6272C202.106 63.1013 201.696 61.3476 201.696 59.3662C201.696 57.362 202.106 55.6083 202.926 54.1052C203.769 52.602 204.919 51.4291 206.376 50.5864C207.834 49.7438 209.508 49.3224 211.398 49.3224C213.175 49.3224 214.792 49.7438 216.249 50.5864C217.73 51.4291 218.994 52.602 220.041 54.1052C221.089 55.6083 221.852 57.362 222.33 59.3662ZM204.907 59.3662C204.907 60.8238 205.203 62.1106 205.796 63.2265C206.411 64.3425 207.242 65.2194 208.289 65.8571C209.36 66.472 210.567 66.7794 211.911 66.7794C213.277 66.7794 214.53 66.472 215.669 65.8571C216.83 65.2194 217.855 64.3425 218.743 63.2265C219.654 62.1106 220.394 60.8238 220.964 59.3662C220.394 57.9086 219.654 56.6218 218.743 55.5058C217.855 54.3899 216.83 53.5244 215.669 52.9095C214.53 52.2718 213.277 51.9529 211.911 51.9529C210.567 51.9529 209.36 52.2718 208.289 52.9095C207.242 53.5244 206.411 54.3899 205.796 55.5058C205.203 56.6218 204.907 57.9086 204.907 59.3662ZM228.124 49.7666H231.267L232.36 56.3257V69H229.217V55.745L228.124 49.7666ZM242.575 49.6982V52.5337C242.142 52.3971 241.63 52.2946 241.038 52.2262C240.468 52.1579 239.922 52.1238 239.398 52.1238C238.031 52.1238 236.813 52.4312 235.742 53.0461C234.672 53.6611 233.841 54.5607 233.249 55.745C232.656 56.9065 232.36 58.2844 232.36 59.8786L231.472 58.6488C231.518 57.3051 231.734 56.0638 232.121 54.9251C232.508 53.7863 233.055 52.807 233.761 51.9871C234.49 51.1444 235.355 50.4953 236.357 50.0399C237.382 49.5616 238.532 49.3224 239.808 49.3224C240.286 49.3224 240.776 49.3566 241.277 49.4249C241.801 49.4933 242.233 49.5844 242.575 49.6982Z" fill="#333333"/>
</svg>
